<svg width="128" height="128" viewBox="0 0 128 128" fill="none" xmlns="http://www.w3.org/2000/svg">
<g clip-path="url(#clip0_26_72)">
<rect width="128" height="128" fill="white"/>
<path d="M35.669 90.724H56.501V103H19.766V37.714H35.669V90.724Z" fill="#201144"/>
<path d="M82.642 87.651C76.504 87.651 70.862 86.225 65.716 83.373C60.632 80.521 56.571 76.553 53.533 71.469C50.557 66.323 49.069 60.557 49.069 54.171C49.069 47.785 50.557 42.05 53.533 36.966C56.571 31.882 60.632 27.914 65.716 25.062C70.862 22.21 76.504 20.784 82.642 20.784C88.78 20.784 94.391 22.21 99.475 25.062C104.621 27.914 108.651 31.882 111.565 36.966C114.541 42.05 116.029 47.785 116.029 54.171C116.029 60.557 114.541 66.323 111.565 71.469C108.589 76.553 104.559 80.521 99.475 83.373C94.391 86.225 88.78 87.651 82.642 87.651ZM82.642 73.143C87.85 73.143 92.004 71.407 95.104 67.935C98.266 64.463 99.847 59.875 99.847 54.171C99.847 48.405 98.266 43.817 95.104 40.407C92.004 36.935 87.85 35.199 82.642 35.199C77.372 35.199 73.156 36.904 69.994 40.314C66.894 43.724 65.344 48.343 65.344 54.171C65.344 59.937 66.894 64.556 69.994 68.028C73.156 71.438 77.372 73.143 82.642 73.143Z" fill="#FFB600"/>
</g>
<defs>
<clipPath id="clip0_26_72">
<rect width="128" height="128" fill="white"/>
</clipPath>
</defs>
</svg>
