<svg width="41" height="41" viewBox="0 0 41 41" fill="none" xmlns="http://www.w3.org/2000/svg">
<g filter="url(#filter0_d_1_166)">
<rect x="4" width="33" height="33" rx="16.5" fill="#FFF3D5" fill-opacity="0.65" shape-rendering="crispEdges"/>
<g clip-path="url(#clip0_1_166)">
<path d="M15.5549 24.8838L19.8749 28L21.0224 26.41L16.9612 23.4813L15.5549 24.8838Z" fill="#F6AF00"/>
<path d="M13.4212 18.4412L10.515 21.3512C10.3575 21.5087 10.2712 21.715 10.2712 21.9325C10.2712 22.1537 10.3575 22.36 10.515 22.5175L13.215 25.2175C13.3687 25.3712 13.5787 25.4575 13.7962 25.4575C14.0175 25.4575 14.2237 25.3712 14.3775 25.2175L17.2837 22.3075L13.4212 18.4412ZM17.1187 9.96249L17.0662 9.95874L16.5525 11.2112L16.635 11.2337C19.9162 12.1375 23.5912 15.8125 24.4987 19.0937L24.5212 19.1762L25.7737 18.6625L25.77 18.61C25.545 15.0325 20.6925 10.1837 17.1187 9.96249Z" fill="#F6AF00"/>
<path d="M16.3837 11.785L16.3199 11.77L13.7737 17.9462L17.7787 21.9512L23.9549 19.405L23.9399 19.3412C23.1299 16.2025 19.5262 12.6025 16.3837 11.785ZM24.1912 11.9875C24.3112 11.9875 24.4237 11.9425 24.5099 11.8563L27.3674 8.99875C27.5437 8.8225 27.5437 8.5375 27.3674 8.36125C27.2812 8.275 27.1687 8.23 27.0487 8.23C26.9287 8.23 26.8162 8.275 26.7299 8.36125L23.8724 11.2188C23.7862 11.305 23.7412 11.4175 23.7412 11.5375C23.7412 11.6575 23.7862 11.77 23.8724 11.8563C23.9587 11.9388 24.0712 11.9875 24.1912 11.9875ZM31.7137 12.7975C31.6612 12.5987 31.4812 12.4637 31.2787 12.4637C31.2412 12.4637 31.2037 12.4675 31.1662 12.4788L26.6399 13.6675C26.3999 13.7313 26.2574 13.9787 26.3212 14.215C26.3737 14.4137 26.5499 14.5487 26.7562 14.5487C26.7937 14.5487 26.8349 14.545 26.8724 14.5338L31.3987 13.345C31.6349 13.2813 31.7774 13.0375 31.7137 12.7975ZM21.5137 9.4075C21.5512 9.41875 21.5887 9.4225 21.6299 9.4225C21.8324 9.4225 22.0124 9.28375 22.0649 9.08875L23.2537 4.5625C23.3174 4.3225 23.1749 4.075 22.9349 4.015C22.8937 4.00375 22.8562 4 22.8187 4C22.6124 4 22.4362 4.13875 22.3837 4.33375L21.1949 8.86C21.1312 9.1 21.2737 9.34375 21.5137 9.4075Z" fill="#F6AF00"/>
</g>
</g>
<defs>
<filter id="filter0_d_1_166" x="0" y="0" width="41" height="41" filterUnits="userSpaceOnUse" color-interpolation-filters="sRGB">
<feFlood flood-opacity="0" result="BackgroundImageFix"/>
<feColorMatrix in="SourceAlpha" type="matrix" values="0 0 0 0 0 0 0 0 0 0 0 0 0 0 0 0 0 0 127 0" result="hardAlpha"/>
<feOffset dy="4"/>
<feGaussianBlur stdDeviation="2"/>
<feComposite in2="hardAlpha" operator="out"/>
<feColorMatrix type="matrix" values="0 0 0 0 0 0 0 0 0 0 0 0 0 0 0 0 0 0 0.25 0"/>
<feBlend mode="normal" in2="BackgroundImageFix" result="effect1_dropShadow_1_166"/>
<feBlend mode="normal" in="SourceGraphic" in2="effect1_dropShadow_1_166" result="shape"/>
</filter>
<clipPath id="clip0_1_166">
<rect width="24" height="24" fill="white" transform="translate(9 4)"/>
</clipPath>
</defs>
</svg>
