<svg width="41" height="41" viewBox="0 0 41 41" fill="none" xmlns="http://www.w3.org/2000/svg">
<g filter="url(#filter0_d_1_169)">
<rect x="4" width="33" height="33" rx="16.5" fill="#6669FF" fill-opacity="0.17" shape-rendering="crispEdges"/>
<path d="M15 10C15 9.46957 15.2107 8.96086 15.5858 8.58579C15.9609 8.21071 16.4696 8 17 8C17.2652 8 17.5196 7.89464 17.7071 7.70711C17.8946 7.51957 18 7.26522 18 7C18 6.73478 17.8946 6.48043 17.7071 6.29289C17.5196 6.10536 17.2652 6 17 6C15.9391 6 14.9217 6.42143 14.1716 7.17157C13.4214 7.92172 13 8.93913 13 10V13C13 13.5304 12.7893 14.0391 12.4142 14.4142C12.0391 14.7893 11.5304 15 11 15C10.7348 15 10.4804 15.1054 10.2929 15.2929C10.1054 15.4804 10 15.7348 10 16C10 16.2652 10.1054 16.5196 10.2929 16.7071C10.4804 16.8946 10.7348 17 11 17C11.5304 17 12.0391 17.2107 12.4142 17.5858C12.7893 17.9609 13 18.4696 13 19V22C13 23.0609 13.4214 24.0783 14.1716 24.8284C14.9217 25.5786 15.9391 26 17 26C17.2652 26 17.5196 25.8946 17.7071 25.7071C17.8946 25.5196 18 25.2652 18 25C18 24.7348 17.8946 24.4804 17.7071 24.2929C17.5196 24.1054 17.2652 24 17 24C16.4696 24 15.9609 23.7893 15.5858 23.4142C15.2107 23.0391 15 22.5304 15 22V19C14.9968 18.4305 14.872 17.8683 14.634 17.3509C14.396 16.8336 14.0503 16.373 13.62 16C14.0503 15.627 14.396 15.1664 14.634 14.6491C14.872 14.1317 14.9968 13.5695 15 13V10ZM31 15C30.4696 15 29.9609 14.7893 29.5858 14.4142C29.2107 14.0391 29 13.5304 29 13V10C29 8.93913 28.5786 7.92172 27.8284 7.17157C27.0783 6.42143 26.0609 6 25 6C24.7348 6 24.4804 6.10536 24.2929 6.29289C24.1054 6.48043 24 6.73478 24 7C24 7.26522 24.1054 7.51957 24.2929 7.70711C24.4804 7.89464 24.7348 8 25 8C25.5304 8 26.0391 8.21071 26.4142 8.58579C26.7893 8.96086 27 9.46957 27 10V13C27.0032 13.5695 27.128 14.1317 27.366 14.6491C27.604 15.1664 27.9497 15.627 28.38 16C27.9497 16.373 27.604 16.8336 27.366 17.3509C27.128 17.8683 27.0032 18.4305 27 19V22C27 22.5304 26.7893 23.0391 26.4142 23.4142C26.0391 23.7893 25.5304 24 25 24C24.7348 24 24.4804 24.1054 24.2929 24.2929C24.1054 24.4804 24 24.7348 24 25C24 25.2652 24.1054 25.5196 24.2929 25.7071C24.4804 25.8946 24.7348 26 25 26C26.0609 26 27.0783 25.5786 27.8284 24.8284C28.5786 24.0783 29 23.0609 29 22V19C29 18.4696 29.2107 17.9609 29.5858 17.5858C29.9609 17.2107 30.4696 17 31 17C31.2652 17 31.5196 16.8946 31.7071 16.7071C31.8946 16.5196 32 16.2652 32 16C32 15.7348 31.8946 15.4804 31.7071 15.2929C31.5196 15.1054 31.2652 15 31 15Z" fill="#595BD4"/>
</g>
<defs>
<filter id="filter0_d_1_169" x="0" y="0" width="41" height="41" filterUnits="userSpaceOnUse" color-interpolation-filters="sRGB">
<feFlood flood-opacity="0" result="BackgroundImageFix"/>
<feColorMatrix in="SourceAlpha" type="matrix" values="0 0 0 0 0 0 0 0 0 0 0 0 0 0 0 0 0 0 127 0" result="hardAlpha"/>
<feOffset dy="4"/>
<feGaussianBlur stdDeviation="2"/>
<feComposite in2="hardAlpha" operator="out"/>
<feColorMatrix type="matrix" values="0 0 0 0 0 0 0 0 0 0 0 0 0 0 0 0 0 0 0.25 0"/>
<feBlend mode="normal" in2="BackgroundImageFix" result="effect1_dropShadow_1_169"/>
<feBlend mode="normal" in="SourceGraphic" in2="effect1_dropShadow_1_169" result="shape"/>
</filter>
</defs>
</svg>
