<svg width="142" height="49" viewBox="0 0 142 49" fill="none" xmlns="http://www.w3.org/2000/svg">
<path d="M15.194 19.83V22.386H19.316V24.762H15.194V27.534H19.856V30H12.116V17.364H19.856V19.83H15.194ZM29.7203 27.768H25.0043L24.2483 30H21.0263L25.5983 17.364H29.1623L33.7343 30H30.4763L29.7203 27.768ZM28.9283 25.392L27.3623 20.766L25.8143 25.392H28.9283ZM41.5698 30L38.9418 25.23H38.2038V30H35.1258V17.364H40.2918C41.2878 17.364 42.1338 17.538 42.8298 17.886C43.5378 18.234 44.0658 18.714 44.4138 19.326C44.7618 19.926 44.9358 20.598 44.9358 21.342C44.9358 22.182 44.6958 22.932 44.2158 23.592C43.7478 24.252 43.0518 24.72 42.1278 24.996L45.0438 30H41.5698ZM38.2038 23.052H40.1118C40.6758 23.052 41.0958 22.914 41.3718 22.638C41.6598 22.362 41.8038 21.972 41.8038 21.468C41.8038 20.988 41.6598 20.61 41.3718 20.334C41.0958 20.058 40.6758 19.92 40.1118 19.92H38.2038V23.052ZM58.172 30H55.094L49.946 22.206V30H46.868V17.364H49.946L55.094 25.194V17.364H58.172V30ZM61.8431 30.144C61.3031 30.144 60.8591 29.988 60.5111 29.676C60.1751 29.352 60.0071 28.956 60.0071 28.488C60.0071 28.008 60.1751 27.606 60.5111 27.282C60.8591 26.958 61.3031 26.796 61.8431 26.796C62.3711 26.796 62.8031 26.958 63.1391 27.282C63.4871 27.606 63.6611 28.008 63.6611 28.488C63.6611 28.956 63.4871 29.352 63.1391 29.676C62.8031 29.988 62.3711 30.144 61.8431 30.144Z" fill="#FFB600"/>
<path d="M103.488 30H100.41L95.2624 22.206V30H92.1844V17.364H95.2624L100.41 25.194V17.364H103.488V30ZM108.798 27.624H112.83V30H105.72V17.364H108.798V27.624ZM117.376 17.364V30H114.298V17.364H117.376ZM130.91 30H127.832L122.684 22.206V30H119.606V17.364H122.684L127.832 25.194V17.364H130.91V30ZM136.219 19.83V22.386H140.341V24.762H136.219V27.534H140.881V30H133.141V17.364H140.881V19.83H136.219Z" fill="#201144"/>
<path d="M7.456 31.776H14.624V36H1.984V13.536H7.456V31.776Z" fill="#201144"/>
<path d="M79.608 35.224C77.496 35.224 75.5547 34.7333 73.784 33.752C72.0347 32.7707 70.6373 31.4053 69.592 29.656C68.568 27.8853 68.056 25.9013 68.056 23.704C68.056 21.5067 68.568 19.5333 69.592 17.784C70.6373 16.0347 72.0347 14.6693 73.784 13.688C75.5547 12.7067 77.496 12.216 79.608 12.216C81.72 12.216 83.6507 12.7067 85.4 13.688C87.1707 14.6693 88.5573 16.0347 89.56 17.784C90.584 19.5333 91.096 21.5067 91.096 23.704C91.096 25.9013 90.584 27.8853 89.56 29.656C88.536 31.4053 87.1493 32.7707 85.4 33.752C83.6507 34.7333 81.72 35.224 79.608 35.224ZM79.608 30.232C81.4 30.232 82.8293 29.6347 83.896 28.44C84.984 27.2453 85.528 25.6667 85.528 23.704C85.528 21.72 84.984 20.1413 83.896 18.968C82.8293 17.7733 81.4 17.176 79.608 17.176C77.7947 17.176 76.344 17.7627 75.256 18.936C74.1893 20.1093 73.656 21.6987 73.656 23.704C73.656 25.688 74.1893 27.2773 75.256 28.472C76.344 29.6453 77.7947 30.232 79.608 30.232Z" fill="#FFB600"/>
</svg>
