<svg width="128" height="24" viewBox="0 0 128 24" fill="none" xmlns="http://www.w3.org/2000/svg">
<path d="M128 9.14526L119.372 8.3621L116 0L112.628 8.37474L104 9.14526L110.552 15.12L108.584 24L116 19.2884L123.416 24L121.46 15.12L128 9.14526ZM116 16.9263V5.17895L118.052 10.2821L123.308 10.7621L119.324 14.4L120.524 19.8063L116 16.9263Z" fill="#FFB600"/>
<path d="M90 18.324L97.416 22.8L95.448 14.364L102 8.688L93.372 7.956L90 0L86.628 7.956L78 8.688L84.552 14.364L82.584 22.8L90 18.324Z" fill="#FFB600"/>
<path d="M64 18.324L71.416 22.8L69.448 14.364L76 8.688L67.372 7.956L64 0L60.628 7.956L52 8.688L58.552 14.364L56.584 22.8L64 18.324Z" fill="#FFB600"/>
<path d="M38 18.324L45.416 22.8L43.448 14.364L50 8.688L41.372 7.956L38 0L34.628 7.956L26 8.688L32.552 14.364L30.584 22.8L38 18.324Z" fill="#FFB600"/>
<path d="M12 18.324L19.416 22.8L17.448 14.364L24 8.688L15.372 7.956L12 0L8.628 7.956L0 8.688L6.552 14.364L4.584 22.8L12 18.324Z" fill="#FFB600"/>
</svg>
